# Blender v2.91.0 OBJ File: ''
# www.blender.org
o Wall_Cube.003
v -1.000000 0.000000 -0.500000
v -1.000000 1.000000 -0.500000
v -1.000000 1.000000 0.500000
v -1.000000 -0.000000 0.500000
v -1.000000 1.500000 0.000000
v -0.001787 1.500000 0.000000
v -0.001787 1.000000 -0.500000
v -0.001787 1.000000 0.500000
v 0.000000 -0.000000 0.500000
v 0.000000 0.000000 -0.500000
v 0.000000 0.000000 -1.500000
v 0.000000 1.000000 -1.500000
v 0.000000 1.000000 1.500000
v 0.000000 -0.000000 1.500000
v -1.000000 2.000000 0.000000
v -1.000000 2.000000 0.500000
v -0.500000 1.500000 0.500000
v -0.500000 1.500000 -0.500000
v -0.500000 1.500000 -1.500000
v -0.500000 1.500000 1.500000
v -1.000000 2.000000 1.500000
v -1.000000 2.000000 -1.500000
v -1.000000 2.000000 -0.500000
v 1.000000 0.000000 -0.500000
v 1.000000 -0.000000 1.500000
v 2.000000 1.000000 -0.500000
v 1.000000 1.000000 1.500000
v 2.000000 0.000000 -0.500000
v 2.000000 -0.000000 0.500000
v -0.001787 1.000000 -0.621297
v -0.001787 1.000000 0.621297
v -0.623520 1.623520 0.000000
v 1.000000 0.000000 -1.500000
v 1.000000 -0.000000 0.500000
v 1.509798 0.000000 -1.394177
v 1.509798 -0.000000 1.394177
v 1.865921 -0.000000 1.049922
v 1.865921 0.000000 -1.049922
v 2.000000 1.000000 0.500000
v 1.000000 1.000000 -1.500000
v 1.509798 1.000000 -1.394177
v 1.509798 1.000000 1.394177
v 1.865921 1.000000 1.049922
v 1.865921 1.000000 -1.049922
v -0.003573 1.623520 0.000000
vt 0.750638 0.501910
vt 0.999592 0.501910
vt 0.999592 1.000445
vt 0.750638 1.000445
vt 0.750844 0.505091
vt 0.999527 0.505091
vt 0.999527 1.003171
vt 0.750844 1.003171
vt 0.750707 0.502338
vt 0.999426 0.502338
vt 0.999426 1.002704
vt 0.750707 1.002704
vt 0.749783 0.002486
vt 0.998823 0.002486
vt 0.998823 0.500599
vt 0.749783 0.500599
vt 0.250349 -0.000432
vt 0.250349 0.499653
vt 0.001395 0.499653
vt 0.001395 -0.000432
vt 0.001089 0.499556
vt 0.249555 0.499556
vt 0.125322 0.735646
vt 0.749916 0.747437
vt 0.500463 0.747437
vt 0.515440 0.499927
vt 0.749916 0.499927
vt 0.501127 0.001986
vt 0.501127 0.498252
vt 0.251002 0.498252
vt 0.250554 0.001986
vt 0.500815 0.496847
vt 0.500815 -0.000171
vt 0.749301 -0.000171
vt 0.748887 0.496847
vt 0.500138 0.001519
vt 0.749590 0.001519
vt 0.749591 0.499507
vt 0.530396 0.499507
vt 0.499429 0.002769
vt 0.499429 0.497092
vt 0.469210 0.497092
vt 0.623214 0.811811
vt 0.623214 0.998541
vt 0.498715 0.998541
vt 0.498715 0.750547
vt 0.250300 0.002769
vt 0.250300 0.497091
vt 0.500138 0.499507
vt 0.251323 0.750547
vt 0.251323 0.998541
vt 0.749916 0.999074
vt 0.500463 0.999074
vt 0.375744 0.999074
vt 0.375744 0.808636
vt 0.507223 0.747304
vt 0.531373 0.621740
vt 0.726532 0.623148
vt 0.750162 0.747305
vt 0.251323 0.502552
vt 0.475814 0.502995
vt 0.751084 0.500436
vt 0.999807 0.500436
vt 0.999807 1.002167
vt 0.751084 1.002166
vt 0.875355 0.001309
vt 0.999529 0.001309
vt 0.999529 0.500766
vt 0.875355 0.500767
vt 0.750740 0.003579
vt 0.874982 0.003579
vt 0.874982 0.499739
vt 0.750740 0.499739
vt 0.251603 0.997849
vt 0.251603 0.499769
vt 0.430316 0.499769
vt 0.430316 0.997849
vt 0.576148 0.997100
vt 0.576148 0.503636
vt 0.750302 0.503636
vt 0.750302 0.997100
vt 0.751151 0.500436
vt 0.999421 0.500436
vt 0.999421 1.003397
vt 0.751151 1.003397
vt 0.748929 0.500527
vt 0.999561 0.500527
vt 0.973038 0.756529
vt 0.886757 0.935362
vt 0.748929 1.002691
vt 0.750942 0.500285
vt 0.999670 0.500286
vt 0.999670 1.003533
vt 0.862889 0.936058
vt 0.777263 0.756840
vt 0.875480 0.000589
vt 1.000211 0.000589
vt 1.000211 0.499679
vt 0.875480 0.499679
vt 0.811388 0.001123
vt 0.937482 0.001123
vt 0.937482 0.500213
vt 0.811388 0.500213
vt 0.751063 0.000080
vt 0.875697 0.000080
vt 0.875697 0.499081
vt 0.751063 0.499081
vt 0.812105 0.002806
vt 0.936746 0.002806
vt 0.936746 0.500714
vt 0.812105 0.500714
vt 0.750935 0.002652
vt 0.999391 0.002651
vt 0.999391 0.500765
vt 0.750935 0.500765
vt 0.999017 0.500123
vt 0.749000 0.500123
vt 0.749000 0.002009
vt 0.999017 0.002010
vt 0.287230 0.628293
vt 0.464717 0.628293
vt 0.498998 0.750047
vt 0.250256 0.750047
vt 0.575137 0.812334
vt 0.751301 0.498598
vt 0.750430 0.811338
vt 0.250839 0.500028
vt 0.426452 0.814296
vt 0.251289 0.813762
vn 0.0000 1.0000 0.0000
vn -1.0000 0.0000 0.0000
vn 0.7071 -0.0000 0.7071
vn 0.6303 -0.2971 0.7173
vn 0.6303 -0.2971 -0.7173
vn 0.7071 0.0000 -0.7071
vn 0.5774 -0.8165 -0.0000
vn 0.9972 0.0748 0.0003
vn 0.9993 0.0361 0.0001
vn 0.4946 0.8551 -0.1554
vn 0.6738 -0.0592 0.7366
vn 0.4251 -0.4443 -0.7886
vn 0.5773 0.5774 -0.5773
vn 0.5773 0.5774 0.5773
vn 0.3651 -0.3000 0.8813
vn 0.5770 0.5775 0.5775
vn 0.4407 0.8760 0.1963
vn 0.9025 0.3589 0.2379
vn 0.3162 -0.9487 -0.0000
vn 0.8607 0.1655 0.4814
vn 0.5770 0.5775 -0.5775
vn 0.6759 -0.0598 -0.7345
vn 0.9972 0.0748 -0.0003
vn 0.2632 0.8430 0.4691
vn 0.1832 -0.9518 0.2459
vn -0.0744 0.6848 -0.7249
vn -0.6595 0.6496 0.3783
vn -0.7411 0.6467 0.1807
vn -0.9715 0.0000 0.2369
vn -0.8674 0.0000 0.4975
vn -0.0744 0.6848 0.7249
vn -0.3555 0.6495 0.6721
vn -0.4676 0.0000 0.8839
vn -0.1022 -0.0000 0.9948
vn -0.3555 0.6495 -0.6721
vn -0.6595 0.6496 -0.3783
vn -0.7411 0.6467 -0.1807
vn -0.1022 0.0000 -0.9948
vn -0.4676 0.0000 -0.8839
vn -0.8674 0.0000 -0.4975
vn -0.9715 0.0000 -0.2369
s off
f 10/1/1 9/2/1 34/3/1 24/4/1
f 24/5/1 34/6/1 29/7/1 28/8/1
f 1/9/1 4/10/1 9/11/1 10/12/1
f 28/13/2 29/14/2 39/15/2 26/16/2
s 1
f 1/17/3 2/18/4 3/19/5 4/20/6
f 3/21/5 2/22/4 5/23/7
f 19/24/8 18/25/9 30/26/10 12/27/11
f 4/28/6 3/29/5 8/30/12 9/31/13
f 2/32/4 1/33/3 10/34/14 7/35/15
f 10/36/14 11/37/16 12/38/11 30/39/10
f 9/40/13 8/41/12 31/42/17
f 32/43/18 15/44/19 16/45/19 17/46/20
f 14/47/21 9/40/13 31/42/17 13/48/22
f 7/49/15 10/36/14 30/39/10
f 20/50/23 17/46/20 16/45/19 21/51/19
f 22/52/19 23/53/19 18/25/9 19/24/8
f 15/54/19 32/55/18 18/25/9 23/53/19
f 45/56/24 6/57/25 7/58/15 30/59/10
f 13/60/22 31/61/17 17/46/20 20/50/23
f 9/62/13 14/63/21 25/64/26 34/65/1
f 38/66/27 28/67/28 26/68/29 44/69/30
f 33/70/31 35/71/32 41/72/33 40/73/34
f 3/74/5 5/75/7 6/76/25 8/77/12
f 5/78/7 2/79/4 7/80/15 6/81/25
f 31/61/17 32/43/18 17/46/20
f 18/25/9 32/55/18 30/26/10
f 11/82/16 10/83/14 24/84/1 33/85/31
f 34/86/1 25/87/26 36/88/35 37/89/36 29/90/37
f 33/91/31 24/92/1 28/93/28 38/94/27 35/95/32
f 36/96/35 25/97/26 27/98/38 42/99/39
f 37/100/36 36/101/35 42/102/39 43/103/40
f 29/104/37 37/105/36 43/106/40 39/107/41
f 35/108/32 38/109/27 44/110/30 41/111/33
f 11/112/16 33/113/31 40/114/34 12/115/11
f 13/116/22 27/117/38 25/118/26 14/119/21
f 8/120/12 6/121/25 45/122/24 31/123/17
f 32/124/18 31/125/17 45/126/24
f 30/127/10 32/128/18 45/129/24
