# Blender v2.91.0 OBJ File: ''
# www.blender.org
o Wall_Cube.004
v 0.000000 -0.000000 0.000496
v 0.000000 1.000000 0.000496
v 0.000000 1.000000 1.000000
v 0.000000 -0.000000 1.000000
v 0.000000 1.000000 2.000000
v 0.000000 -0.000000 2.000000
v 0.500000 1.500000 0.500496
v 1.000000 1.500000 0.500992
v 1.000000 2.000000 1.000496
v 0.500000 1.500000 2.000000
v 0.500000 1.500000 1.000000
v 1.000000 2.000000 2.000000
v 1.000000 -0.000000 0.000992
v 1.000000 1.000000 0.000992
v 2.000000 -0.000000 0.000992
v 2.000000 1.000000 0.000992
v 2.000000 1.500000 0.500992
v 2.000000 2.000000 1.000992
v 0.000000 -1.000000 1.000000
v 0.000000 -1.000000 0.000496
v 1.000000 -1.000000 0.000992
v 2.000000 -1.000000 0.000992
v 0.000000 -1.000000 2.000000
vt 0.999785 0.003906
vt 0.999785 0.501800
vt 0.502015 0.501800
vt 0.502015 0.003906
vt -0.001738 0.501800
vt -0.001738 0.003906
vt 0.264827 0.752091
vt 0.528422 0.752157
vt 0.528453 0.997097
vt 0.003875 0.749242
vt 0.497863 0.749242
vt 0.497739 0.998060
vt 0.003875 0.998060
vt 0.003875 0.500424
vt 0.497863 0.500424
vt 0.501724 0.749242
vt 0.752122 0.749242
vt 0.501476 0.996939
vt 0.501877 0.002030
vt 0.501877 0.497970
vt 0.002030 0.497970
vt 0.002030 0.002030
vt 0.997817 0.002030
vt 0.997817 0.497970
vt 0.001201 0.499273
vt 0.528391 0.499317
vt 0.997150 0.748032
vt 0.503163 0.748076
vt 0.503132 0.501095
vt 0.997119 0.501051
vt 0.997181 0.996966
vt 0.503194 0.996923
vt 0.501724 0.501545
vt 1.002769 0.501545
vt 0.999785 0.498047
vt 0.496156 0.498047
vt 0.496156 0.002106
vt 0.999785 0.002106
vt 0.999924 0.497970
vt 0.502030 0.497970
vt 0.502030 0.002030
vt 0.999924 0.002030
vt -0.001738 0.498047
vt -0.001738 0.002106
vt 0.002183 0.497970
vt 0.002183 0.002030
vn 0.7069 -0.0000 0.7073
vn 0.6505 -0.3914 0.6509
vn 0.9239 -0.3827 -0.0000
vn 1.0000 0.0000 0.0000
vn 0.4080 -0.8165 0.4084
vn -0.0003 -0.7069 0.7073
vn 0.4080 -0.8165 0.4085
vn 0.7071 -0.7071 -0.0000
vn -0.0002 -0.0000 1.0000
vn -0.0004 -0.3827 0.9239
vn 0.0000 -0.0000 1.0000
vn 0.0000 -0.3827 0.9239
vn -0.0001 -0.7070 0.7072
vn -0.0002 -0.7069 0.7073
s 1
f 1/1/1 2/2/2 3/3/3 4/4/4
f 4/4/4 3/3/3 5/5/3 6/6/4
f 7/7/5 8/8/6 9/9/7
f 10/10/8 11/11/8 9/12/7 12/13/8
f 5/14/3 3/15/3 11/11/8 10/10/8
f 11/16/8 7/17/5 9/18/7
f 13/19/9 14/20/10 2/21/2 1/22/1
f 14/20/10 13/19/9 15/23/11 16/24/12
f 8/8/6 7/7/5 2/25/2 14/26/10
f 17/27/13 8/28/6 14/29/10 16/30/12
f 18/31/14 9/32/7 8/28/6 17/27/13
f 11/16/8 3/33/3 2/34/2 7/17/5
f 1/35/1 4/36/4 19/37/4 20/38/1
f 15/39/11 13/40/9 21/41/9 22/42/11
f 4/36/4 6/43/4 23/44/4 19/37/4
f 13/40/9 1/45/1 20/46/1 21/41/9
