# Blender v2.91.0 OBJ File: ''
# www.blender.org
o Cube_Cube.001
v -0.500000 0.946195 0.212235
v -0.500000 0.946195 -0.212235
v -0.500000 0.657426 0.000000
v -0.254826 0.946195 0.000000
vt 0.231036 0.465004
vt 0.423433 0.696055
vt 0.055875 0.697767
vt 0.746374 0.996961
vt 0.376015 0.998031
vt 0.562127 0.812626
vt 0.187394 0.750648
vt 0.186446 0.993918
vt 0.003838 0.993918
vt 0.369849 0.993918
vn -1.0000 0.0000 0.0000
vn 0.0000 1.0000 0.0000
vn 0.5721 -0.4857 0.6609
vn 0.5721 -0.4857 -0.6609
s off
f 1/1/1 2/2/1 3/3/1
f 2/4/2 1/5/2 4/6/2
f 3/7/3 4/8/3 1/9/3
f 4/8/4 3/7/4 2/10/4
