# Blender v2.91.0 OBJ File: ''
# www.blender.org
o Rock_Board_Wall_Cube.006
v 0.500000 0.237376 -0.414545
v 0.500000 1.000000 -0.427204
v 0.500000 0.399320 0.462020
v 0.500000 0.025320 0.405049
v 0.400000 0.237376 -0.414545
v 0.400000 0.025320 0.405049
v 0.400000 0.399320 0.462020
v 0.400000 1.000000 -0.427204
v 0.500000 1.000000 0.030326
v 0.500000 -0.000000 -0.159576
v 0.400000 -0.000000 -0.159576
v 0.400000 1.000000 0.030326
vt 0.322336 0.503069
vt 0.229031 0.996274
vt 0.015940 0.700202
vt 0.043906 0.515748
vt 0.321787 0.498858
vt 0.044388 0.496524
vt 0.009764 0.314096
vt 0.210780 0.011753
vt 0.579940 0.502603
vt 0.579940 0.670105
vt 0.535664 0.670105
vt 0.535664 0.502603
vt 0.705231 0.834155
vt 0.705231 0.545889
vt 0.748422 0.545889
vt 0.748422 0.834155
vt 0.623993 0.997261
vt 0.623993 0.658193
vt 0.668448 0.658193
vt 0.668448 0.997261
vt 0.827075 0.764639
vt 0.827075 0.997994
vt 0.783884 0.997994
vt 0.783884 0.764639
vt 0.579940 0.997620
vt 0.535664 0.997620
vt 0.623993 0.503330
vt 0.668448 0.503330
vt 0.442609 0.377872
vt 0.435197 0.003581
vt 0.448153 0.620041
vt 0.454657 0.996117
vn 0.6295 -0.7292 -0.2682
vn 0.6174 0.7000 0.3589
vn 0.6312 0.1814 0.7541
vn 0.5884 -0.6013 0.5406
vn -0.6295 -0.7292 -0.2682
vn -0.5884 -0.6013 0.5406
vn -0.6312 0.1814 0.7541
vn -0.6174 0.7000 0.3589
vn 0.5765 0.5730 -0.5826
vn 0.6287 -0.3163 -0.7104
vn -0.6287 -0.3163 -0.7104
vn -0.5765 0.5730 -0.5826
s 1
f 10/1/1 9/2/2 3/3/3 4/4/4
f 11/5/5 6/6/6 7/7/7 12/8/8
f 4/9/4 3/10/3 7/11/7 6/12/6
f 10/13/1 4/14/4 6/15/6 11/16/5
f 2/17/9 1/18/10 5/19/11 8/20/12
f 9/21/2 2/22/9 8/23/12 12/24/8
f 3/10/3 9/25/2 12/26/8 7/11/7
f 1/18/10 10/27/1 11/28/5 5/19/11
f 5/29/11 11/5/5 12/8/8 8/30/12
f 1/31/10 2/32/9 9/2/2 10/1/1
