# Blender v2.91.0 OBJ File: ''
# www.blender.org
o Stairs_Cube.001
v -0.250000 1.000000 -0.500000
v -0.500000 1.000000 -0.500000
v -0.500000 1.000000 0.500000
v -0.250000 1.000000 0.500000
v -0.500000 -0.000000 0.500000
v -0.250000 0.750000 0.500000
v 0.500000 0.250000 0.500000
v 0.250000 0.250000 0.500000
v 0.500000 -0.000000 0.500000
v -0.500000 0.000000 -0.500000
v 0.250000 0.250000 -0.500000
v 0.500000 0.250000 -0.500000
v 0.500000 0.000000 -0.500000
v 0.000000 0.500000 0.500000
v 0.000000 0.750000 0.500000
v 0.250000 0.500000 -0.500000
v 0.250000 0.500000 0.500000
v -0.250000 0.750000 -0.500000
v 0.000000 0.750000 -0.500000
v 0.000000 0.500000 -0.500000
vt 0.500916 0.499384
vt 0.500916 0.376494
vt 1.001624 0.376494
vt 1.001624 0.499384
vt 0.500916 0.499384
vt 0.611776 0.870511
vt 0.611776 0.993461
vt 0.500916 0.993461
vt 1.001624 0.624611
vt 0.862587 0.624611
vt 1.001624 0.499384
vt 0.502690 0.500441
vt 0.860554 0.624714
vt 0.996405 0.624714
vt 0.996405 0.500441
vt 0.753287 0.747561
vt 0.753287 0.870511
vt 0.500916 0.499384
vt 0.500916 0.622093
vt -0.001934 0.622093
vt -0.001934 0.499384
vt 0.498985 0.003766
vt 0.498985 0.351653
vt 0.003276 0.351652
vt 0.003276 0.003766
vt 0.500916 0.003533
vt 1.001624 0.003533
vt 1.001624 0.125774
vt 0.500916 0.125774
vt 0.500916 0.622093
vt 0.500916 0.748534
vt -0.001934 0.748533
vt -0.001934 0.622093
vt 0.614674 0.873261
vt 0.748570 0.873261
vt 0.748570 0.748988
vt -0.001934 0.876608
vt 0.500916 0.876608
vt 0.500916 0.999533
vt -0.001934 0.999533
vt 0.614674 0.997534
vt 0.502690 0.997534
vt 1.001624 0.248015
vt 0.500916 0.248015
vt 0.500916 0.125774
vt 1.001624 0.125774
vt 0.862587 0.747561
vt 0.500916 0.249136
vt 1.001624 0.249136
vt 1.001624 0.374031
vt 0.500916 0.374031
vt 0.500916 -0.000744
vt 0.500916 0.499384
vt -0.001934 0.499384
vt -0.001934 -0.000744
vt 0.860554 0.748988
vt -0.001934 0.748761
vt 0.500916 0.748761
vt 0.500916 0.876608
vt -0.001934 0.876608
vn 0.0000 1.0000 0.0000
vn 0.0000 -0.0000 1.0000
vn 0.0000 0.0000 -1.0000
vn 1.0000 0.0000 0.0000
vn 0.0000 -1.0000 -0.0000
vn -1.0000 0.0000 0.0000
s 1
f 1/1/1 2/2/1 3/3/1 4/4/1
f 5/5/2 6/6/2 4/7/2 3/8/2
f 7/9/2 8/10/2 5/5/2 9/11/2
f 10/12/3 11/13/3 12/14/3 13/15/3
f 5/5/2 14/16/2 15/17/2 6/6/2
f 13/18/4 12/19/4 7/20/4 9/21/4
f 9/22/5 5/23/5 10/24/5 13/25/5
f 7/26/1 12/27/1 11/28/1 8/29/1
f 11/30/4 16/31/4 17/32/4 8/33/4
f 18/34/3 19/35/3 20/36/3 10/12/3
f 6/37/4 18/38/4 1/39/4 4/40/4
f 1/41/3 18/34/3 10/12/3 2/42/3
f 17/43/1 16/44/1 20/45/1 14/46/1
f 8/10/2 17/47/2 14/16/2 5/5/2
f 18/48/1 6/49/1 15/50/1 19/51/1
f 5/52/6 3/53/6 2/54/6 10/55/6
f 10/12/3 20/36/3 16/56/3 11/13/3
f 14/57/4 20/58/4 19/59/4 15/60/4
