# Blender v2.91.0 OBJ File: ''
# www.blender.org
o UFO_Board_Wall_Cube.005
v 0.500000 0.248680 -0.500000
v 0.500000 0.658411 -0.500000
v 0.500000 0.607527 0.500000
v 0.500000 0.060135 0.500000
v 0.400000 0.248680 -0.500000
v 0.400000 0.060135 0.500000
v 0.400000 0.607527 0.500000
v 0.400000 0.658411 -0.500000
v 0.500000 0.851244 0.158768
v 0.500000 -0.000000 0.158768
v 0.400000 -0.000000 0.158768
v 0.400000 0.851244 0.158768
v 0.500000 1.000000 -0.328286
v 0.500000 0.037980 -0.328286
v 0.400000 0.037980 -0.328286
v 0.400000 1.000000 -0.328286
v 0.500000 0.958855 -0.132046
v 0.500000 0.000000 -0.132046
v 0.400000 0.000000 -0.132046
v 0.400000 0.958855 -0.132046
vt 0.170666 0.500157
vt 0.170666 0.925511
vt 0.000158 0.803730
vt 0.000158 0.530206
vt 0.329334 0.000158
vt 0.499843 0.030207
vt 0.499842 0.303730
vt 0.329334 0.425512
vt 0.670225 0.513829
vt 0.670225 0.787353
vt 0.626116 0.787353
vt 0.626116 0.513829
vt 0.749932 0.776674
vt 0.749932 0.949810
vt 0.703870 0.949810
vt 0.703870 0.776674
vt 0.531605 0.824630
vt 0.531605 0.637194
vt 0.581180 0.637194
vt 0.581180 0.824630
vt 0.531605 0.999526
vt 0.581180 0.999526
vt 0.826973 0.533361
vt 0.826973 0.742893
vt 0.782864 0.742893
vt 0.782864 0.533361
vt 0.749932 0.631359
vt 0.703870 0.631359
vt 0.184019 0.000158
vt 0.184018 0.479283
vt 0.315981 0.500157
vt 0.315981 0.979283
vt 0.499842 0.624419
vt 0.499842 0.829155
vt 0.414040 0.999842
vt 0.414040 0.519135
vt 0.000158 0.124419
vt 0.085961 0.019136
vt 0.085960 0.499842
vt 0.000158 0.329156
vt 0.531605 0.514806
vt 0.581180 0.514806
vt 0.826973 0.897838
vt 0.826973 0.998028
vt 0.782864 0.998028
vt 0.782864 0.897838
vt 0.749932 0.531481
vt 0.703870 0.531481
vn 0.6880 -0.7229 0.0632
vn 0.6785 0.6491 0.3440
vn 0.6172 0.3601 0.6996
vn 0.5871 -0.5204 0.6201
vn -0.6880 -0.7229 0.0632
vn -0.5871 -0.5204 0.6201
vn -0.6172 0.3601 0.6996
vn -0.6785 0.6491 0.3440
vn 0.6587 0.1737 -0.7321
vn 0.6389 -0.2579 -0.7248
vn -0.6389 -0.2579 -0.7248
vn -0.6587 0.1737 -0.7321
vn 0.5922 0.7259 -0.3499
vn -0.5922 0.7259 -0.3499
vn 0.6862 -0.7241 -0.0694
vn -0.6862 -0.7241 -0.0694
vn -0.6909 0.6947 0.2002
vn 0.6909 0.6947 0.2002
vn 0.6378 -0.6610 -0.3954
vn -0.6378 -0.6610 -0.3954
s 1
f 10/1/1 9/2/2 3/3/3 4/4/4
f 11/5/5 6/6/6 7/7/7 12/8/8
f 4/9/4 3/10/3 7/11/7 6/12/6
f 10/13/1 4/14/4 6/15/6 11/16/5
f 2/17/9 1/18/10 5/19/11 8/20/12
f 13/21/13 2/17/9 8/20/12 16/22/14
f 3/23/3 9/24/2 12/25/8 7/26/7
f 18/27/15 10/13/1 11/16/5 19/28/16
f 19/29/16 11/5/5 12/8/8 20/30/17
f 18/31/15 17/32/18 9/2/2 10/1/1
f 1/33/10 2/34/9 13/35/13 14/36/19
f 5/37/11 15/38/20 16/39/14 8/40/12
f 1/18/10 14/41/19 15/42/20 5/19/11
f 17/43/18 13/44/13 16/45/14 20/46/17
f 9/24/2 17/43/18 20/46/17 12/25/8
f 14/36/19 13/35/13 17/32/18 18/31/15
f 15/38/20 19/29/16 20/30/17 16/39/14
f 14/47/19 18/27/15 19/28/16 15/48/20
