# Blender v2.91.0 OBJ File: ''
# www.blender.org
o Wall_Cube.003
v -1.000000 0.000000 -0.500000
v -1.000000 1.000000 -0.500000
v -1.000000 1.000000 0.500000
v -1.000000 -0.000000 0.500000
v -1.000000 1.500000 0.000000
v 0.000000 1.000000 -0.500000
v 0.500000 1.500000 0.000000
v 0.000000 1.000000 0.500000
v 0.000000 -0.000000 0.500000
v 0.000000 0.000000 -0.500000
v 0.000000 0.000000 -1.500000
v 0.000000 1.000000 -1.500000
v 0.000000 1.000000 1.500000
v 0.000000 -0.000000 1.500000
v 1.000000 2.000000 0.000000
v 1.000000 2.000000 0.500000
v 0.500000 1.500000 0.500000
v 0.500000 1.500000 -0.500000
v 0.500000 1.500000 -1.500000
v 0.500000 1.500000 1.500000
v 1.000000 2.000000 1.500000
v 1.000000 2.000000 -1.500000
v 1.000000 2.000000 -0.500000
v -1.000000 -1.000000 0.500000
v -1.000000 -1.000000 -0.500000
v 0.000000 -1.000000 -0.500000
v 0.000000 -1.000000 0.500000
v 0.000000 -1.000000 1.500000
v 0.000000 -1.000000 -1.500000
v 0.000000 1.500000 0.000000
vt 0.495368 0.001284
vt 0.495368 0.494233
vt 0.002419 0.494233
vt 0.002419 0.001284
vt 0.248893 0.740708
vt 0.503039 0.748664
vt 0.503039 0.500306
vt 0.750366 0.748664
vt 0.998836 0.001774
vt 0.998836 0.497980
vt 0.502631 0.497980
vt 0.502631 0.001774
vt 0.998398 0.499979
vt 0.998398 0.748337
vt 0.751070 0.748337
vt 0.502652 0.498755
vt 0.502652 0.002550
vt 0.997308 0.002550
vt 0.997308 0.498755
vt 0.502488 0.499347
vt 0.502488 0.001591
vt 0.995593 0.001591
vt 0.995593 0.499347
vt 1.000203 0.000959
vt 1.000203 0.497164
vt 0.500897 0.497164
vt 0.500897 0.000959
vt 0.750683 0.751937
vt 0.750683 0.998745
vt 0.502992 0.998745
vt 0.502992 0.751937
vt 0.750479 0.748742
vt 0.999357 0.499609
vt 0.999357 0.748742
vt 0.997949 0.749071
vt 0.501744 0.749071
vt 0.501744 0.500713
vt 0.997949 0.500713
vt 0.501805 0.752079
vt 0.999561 0.752079
vt 0.999561 0.998888
vt 0.501805 0.998887
vt 0.501621 0.499000
vt 0.999377 0.499000
vt 0.999377 0.748908
vt 0.501621 0.748908
vt 0.999561 1.000152
vt 0.500255 1.000152
vt 0.500255 0.753344
vt 0.999561 0.753344
vt 0.502820 0.499609
vt 0.751698 0.748742
vt 0.502820 0.748742
vt 0.998373 0.751937
vt 0.998373 0.998745
vt 0.783714 0.757807
vt 0.783713 0.757720
vt 0.778718 0.757630
vt 0.788709 0.185289
vt 0.788709 0.757723
vt 0.497265 0.996723
vt 0.002490 0.996723
vt 0.002490 0.501949
vt 0.497265 0.501949
vt 0.999001 0.498755
vt 0.501245 0.498755
vt 0.501245 -0.000551
vt 0.999001 -0.000551
vt 0.998693 0.499530
vt 0.504038 0.499530
vt 0.504038 0.001775
vt 0.998693 0.001774
vt 1.000203 0.497021
vt 0.500897 0.497021
vt 0.500897 0.003916
vt 1.000203 0.003916
vt 0.996511 0.498572
vt 0.501856 0.498572
vt 0.501856 0.000816
vt 0.996511 0.000816
vt 0.502090 0.748429
vt 0.502090 0.500071
vt 0.998296 0.500071
vt 0.998296 0.748429
vt 0.502417 0.748429
vt 0.502417 0.501621
vt 1.000173 0.501621
vt 1.000173 0.748429
vn 0.7071 -0.0000 0.7071
vn 0.6303 -0.2971 0.7173
vn 0.6303 -0.2971 -0.7173
vn 0.7071 0.0000 -0.7071
vn 0.5774 -0.8165 -0.0000
vn 0.0000 -0.9040 0.4275
vn 0.5789 -0.5743 0.5789
vn 0.3729 -0.7459 0.5519
vn 0.5789 -0.5743 -0.5789
vn 1.0000 0.0000 0.0000
vn 0.9239 -0.3827 -0.0000
vn 0.7071 -0.7071 -0.0000
vn 0.0000 0.0000 0.0000
s 1
f 1/1/1 2/2/2 3/3/3 4/4/4
f 3/3/3 2/2/2 5/5/5
f 30/6/6 6/7/7 7/8/8
f 4/9/4 3/10/3 8/11/9 9/12/4
f 8/13/9 30/14/6 7/15/8
f 2/16/2 1/17/1 10/18/1 6/19/7
f 6/20/7 10/21/1 11/22/10 12/23/11
f 9/24/4 8/25/9 13/26/11 14/27/10
f 7/28/12 15/29/12 16/30/12 17/31/12
f 7/32/8 6/33/7 18/34/12
f 19/35/12 18/36/12 6/37/7 12/38/11
f 20/39/12 17/40/12 16/41/12 21/42/12
f 13/43/11 8/44/9 17/45/12 20/46/12
f 22/47/12 23/48/12 18/49/12 19/50/12
f 8/51/9 7/52/8 17/53/12
f 15/29/12 7/28/12 18/54/12 23/55/12
f 7/56/13 17/57/13 20/58/13 19/59/13 18/60/13
f 1/61/1 4/62/4 24/63/4 25/64/1
f 10/65/1 1/66/1 25/67/1 26/68/1
f 4/69/4 9/70/4 27/71/4 24/72/4
f 9/73/4 14/74/10 28/75/10 27/76/4
f 11/77/10 10/78/1 26/79/1 29/80/10
f 3/81/3 5/82/5 30/83/6 8/84/9
f 5/85/5 2/86/2 6/87/7 30/88/6
